<svg xmlns="http://www.w3.org/2000/svg" width="1080" height="1080" viewBox="0 0 1080 1080" version="1.1"><path d="M 496.500 1.149 C 455.194 4.416, 410.678 13.488, 369.946 26.942 C 267.844 60.666, 178.858 123.865, 111.492 210.500 C 48.350 291.703, 9.076 394.262, 1.033 498.950 C -0.298 516.276, -0.298 563.724, 1.033 581.050 C 4.392 624.774, 13.108 668.170, 26.942 710.054 C 60.673 812.178, 123.472 900.612, 210.500 968.540 C 224.293 979.306, 254.569 999.556, 271 1009.005 C 286.931 1018.166, 317.474 1033.100, 335.446 1040.515 C 384.575 1060.785, 443.903 1074.738, 498.950 1078.967 C 516.276 1080.298, 563.724 1080.298, 581.050 1078.967 C 624.774 1075.608, 668.170 1066.892, 710.054 1053.058 C 812.178 1019.327, 900.612 956.528, 968.540 869.500 C 979.306 855.707, 999.556 825.431, 1009.005 809 C 1018.166 793.069, 1033.100 762.526, 1040.515 744.554 C 1060.358 696.462, 1075.737 631.683, 1078.633 583.995 C 1079.003 577.909, 1079.686 572.694, 1080.152 572.406 C 1080.619 572.118, 1081 557.032, 1081 538.882 C 1081 520.732, 1080.617 506.119, 1080.148 506.408 C 1079.680 506.698, 1078.996 501.986, 1078.629 495.937 C 1076.399 459.219, 1066.603 410.955, 1053.058 369.946 C 1019.334 267.844, 956.135 178.858, 869.500 111.492 C 788.297 48.350, 685.738 9.076, 581.050 1.033 C 565.290 -0.177, 512.360 -0.105, 496.500 1.149 M 514 129.085 C 454.104 132.876, 391.644 151.087, 340.896 179.556 C 214.689 250.354, 134.505 379.680, 129.195 521 C 127.546 564.897, 131.164 601.702, 140.991 641 C 172.663 767.648, 265.138 873.503, 386.500 922.032 C 485.350 961.558, 594.650 961.558, 693.500 922.032 C 744.694 901.561, 791.316 870.699, 831.008 831.008 C 928.815 733.201, 970.776 594.210, 943.467 458.500 C 919.657 340.177, 845.854 239.439, 739.104 179.556 C 672.812 142.367, 591.647 124.169, 514 129.085 M 523.500 269.062 C 419.461 275.728, 340.450 322.740, 300.025 402.031 C 285.535 430.452, 276.900 459.775, 272.327 496.086 C 269.969 514.806, 269.988 560.368, 272.361 578.500 C 280.833 643.228, 304.874 695.023, 345.001 735 C 386.488 776.333, 443.461 801.868, 511.500 809.625 C 532.477 812.017, 575.232 812.019, 595 809.629 C 666.012 801.046, 718.826 776.401, 756.290 734.367 C 761.810 728.174, 769.175 719.145, 772.656 714.304 C 780.298 703.674, 791.724 681.016, 796.005 668 C 798.566 660.215, 806.641 631.070, 809.374 619.750 L 810.038 617 723.558 617 L 637.077 617 636.005 621.250 C 628.587 650.658, 611.492 670.391, 585.086 680.028 C 573.441 684.278, 561.998 686, 545.404 686 C 516.737 686, 494.440 678.782, 474.733 663.121 C 456.323 648.491, 448.659 633.471, 444.824 604.500 C 443.857 597.194, 443.500 579.009, 443.500 537 C 443.500 474.290, 443.605 472.872, 449.673 453.626 C 457.690 428.198, 475.160 408.569, 497.979 399.352 C 525.378 388.286, 564.111 388.793, 588.911 400.543 C 611.171 411.090, 626.083 429.131, 634.955 456.250 L 637.163 463 722.519 463 L 807.874 463 807.339 459.250 C 805.611 447.142, 801.205 428.624, 797.049 416 C 777.362 356.197, 736.157 313.374, 674.753 288.900 C 634.618 272.903, 578.475 265.540, 523.500 269.062 M 0.448 540 C 0.448 558.425, 0.583 565.962, 0.748 556.750 C 0.913 547.538, 0.913 532.462, 0.748 523.250 C 0.583 514.038, 0.448 521.575, 0.448 540" stroke="none" fill="#d23033" fill-rule="evenodd"/><path d="M 514 129.085 C 454.104 132.876, 391.644 151.087, 340.896 179.556 C 214.689 250.354, 134.505 379.680, 129.195 521 C 127.546 564.897, 131.164 601.702, 140.991 641 C 172.663 767.648, 265.138 873.503, 386.500 922.032 C 485.350 961.558, 594.650 961.558, 693.500 922.032 C 744.694 901.561, 791.316 870.699, 831.008 831.008 C 928.815 733.201, 970.776 594.210, 943.467 458.500 C 919.657 340.177, 845.854 239.439, 739.104 179.556 C 672.812 142.367, 591.647 124.169, 514 129.085 M 523.500 269.062 C 419.461 275.728, 340.450 322.740, 300.025 402.031 C 285.535 430.452, 276.900 459.775, 272.327 496.086 C 269.969 514.806, 269.988 560.368, 272.361 578.500 C 280.833 643.228, 304.874 695.023, 345.001 735 C 386.488 776.333, 443.461 801.868, 511.500 809.625 C 532.477 812.017, 575.232 812.019, 595 809.629 C 666.012 801.046, 718.826 776.401, 756.290 734.367 C 761.810 728.174, 769.175 719.145, 772.656 714.304 C 780.298 703.674, 791.724 681.016, 796.005 668 C 798.566 660.215, 806.641 631.070, 809.374 619.750 L 810.038 617 723.558 617 L 637.077 617 636.005 621.250 C 628.587 650.658, 611.492 670.391, 585.086 680.028 C 573.441 684.278, 561.998 686, 545.404 686 C 516.737 686, 494.440 678.782, 474.733 663.121 C 456.323 648.491, 448.659 633.471, 444.824 604.500 C 443.857 597.194, 443.500 579.009, 443.500 537 C 443.500 474.290, 443.605 472.872, 449.673 453.626 C 457.690 428.198, 475.160 408.569, 497.979 399.352 C 525.378 388.286, 564.111 388.793, 588.911 400.543 C 611.171 411.090, 626.083 429.131, 634.955 456.250 L 637.163 463 722.519 463 L 807.874 463 807.339 459.250 C 805.611 447.142, 801.205 428.624, 797.049 416 C 777.362 356.197, 736.157 313.374, 674.753 288.900 C 634.618 272.903, 578.475 265.540, 523.500 269.062" stroke="none" fill="#fbfbfb" fill-rule="evenodd"/></svg>