<svg id="svg" version="1.1" xmlns="http://www.w3.org/2000/svg" xmlns:xlink="http://www.w3.org/1999/xlink" width="400" height="400" viewBox="0, 0, 400,400"><g id="svgg"><path id="path0" d="M189.000 79.055 C 188.340 79.129,185.910 79.389,183.600 79.633 C 121.066 86.220,79.755 137.365,83.521 203.539 C 87.288 269.746,128.684 309.225,198.094 312.804 C 261.475 316.073,307.566 282.841,316.559 227.392 C 316.915 225.196,317.290 222.905,317.393 222.300 L 317.580 221.200 280.990 221.200 C 260.865 221.200,244.400 221.307,244.400 221.437 C 244.400 222.646,242.538 230.286,241.564 233.075 C 235.577 250.211,223.488 258.599,204.800 258.582 C 174.483 258.555,160.711 241.644,159.358 202.782 C 157.741 156.323,175.557 130.342,207.080 133.192 C 227.356 135.025,240.111 146.639,243.328 166.200 L 243.854 169.400 279.959 169.502 L 316.065 169.604 315.858 168.502 C 315.744 167.896,315.536 166.500,315.396 165.400 C 308.317 110.004,265.913 78.417,199.220 78.860 C 194.259 78.893,189.660 78.981,189.000 79.055 " stroke="none" fill="#fbfbfb" fill-rule="evenodd"></path><path id="path1" d="M189.200 14.260 C 127.046 19.803,73.598 53.851,42.993 107.400 C 19.695 148.163,13.001 198.523,24.803 244.253 C 41.386 308.511,90.865 358.822,154.796 376.434 C 189.619 386.028,229.171 384.839,263.004 373.183 C 338.659 347.119,387.790 278.302,387.790 198.400 C 387.790 104.546,320.062 27.649,226.400 15.162 C 220.064 14.317,195.295 13.717,189.200 14.260 M210.800 78.807 C 266.821 82.201,301.730 107.437,313.208 152.839 C 314.405 157.575,316.000 166.518,316.000 168.500 L 316.000 169.600 279.800 169.600 C 259.890 169.600,243.600 169.534,243.600 169.452 C 243.600 154.307,231.059 138.695,215.800 134.845 C 180.419 125.918,159.802 149.325,159.819 198.400 C 159.833 236.377,170.496 253.999,195.800 257.861 C 221.513 261.786,238.566 249.904,243.536 224.600 L 244.243 221.000 281.154 220.898 L 318.064 220.796 317.834 221.898 C 317.708 222.504,317.147 225.520,316.589 228.600 C 306.336 285.185,258.820 317.727,193.595 312.835 C 132.484 308.251,92.761 273.648,84.614 217.900 C 72.388 134.242,127.270 73.746,210.800 78.807 " stroke="none" fill="#040404" fill-rule="evenodd"></path><path id="path2" d="M197.712 78.695 C 198.764 78.777,200.384 78.776,201.312 78.692 C 202.240 78.608,201.380 78.541,199.400 78.542 C 197.420 78.543,196.660 78.612,197.712 78.695 M115.381 111.300 L 113.800 113.000 115.500 111.419 C 117.081 109.948,117.384 109.600,117.081 109.600 C 117.016 109.600,116.251 110.365,115.381 111.300 M82.920 195.600 C 82.920 196.810,82.995 197.305,83.087 196.700 C 83.178 196.095,83.178 195.105,83.087 194.500 C 82.995 193.895,82.920 194.390,82.920 195.600 M159.328 198.000 C 159.328 199.430,159.401 200.015,159.489 199.300 C 159.578 198.585,159.578 197.415,159.489 196.700 C 159.401 195.985,159.328 196.570,159.328 198.000 " stroke="none" fill="#7c7c7c" fill-rule="evenodd"></path><path id="path3" d="M289.000 109.200 C 290.083 110.300,291.060 111.200,291.170 111.200 C 291.280 111.200,290.483 110.300,289.400 109.200 C 288.317 108.100,287.340 107.200,287.230 107.200 C 287.120 107.200,287.917 108.100,289.000 109.200 M201.100 133.089 C 201.815 133.178,202.985 133.178,203.700 133.089 C 204.415 133.001,203.830 132.928,202.400 132.928 C 200.970 132.928,200.385 133.001,201.100 133.089 M159.320 193.600 C 159.320 194.810,159.395 195.305,159.487 194.700 C 159.578 194.095,159.578 193.105,159.487 192.500 C 159.395 191.895,159.320 192.390,159.320 193.600 M159.324 202.600 C 159.326 203.920,159.401 204.412,159.490 203.693 C 159.579 202.974,159.577 201.894,159.486 201.293 C 159.395 200.692,159.322 201.280,159.324 202.600 M83.293 203.200 C 83.293 203.970,83.375 204.285,83.476 203.900 C 83.576 203.515,83.576 202.885,83.476 202.500 C 83.375 202.115,83.293 202.430,83.293 203.200 M262.730 221.100 C 272.922 221.159,289.482 221.159,299.530 221.100 C 309.579 221.040,301.240 220.992,281.000 220.992 C 260.760 220.992,252.539 221.040,262.730 221.100 M231.978 248.700 L 230.600 250.200 232.100 248.822 C 233.496 247.538,233.784 247.200,233.478 247.200 C 233.412 247.200,232.737 247.875,231.978 248.700 M199.900 313.082 C 200.395 313.178,201.205 313.178,201.700 313.082 C 202.195 312.987,201.790 312.909,200.800 312.909 C 199.810 312.909,199.405 312.987,199.900 313.082 M210.905 313.087 C 211.514 313.179,212.414 313.177,212.905 313.082 C 213.397 312.987,212.900 312.911,211.800 312.914 C 210.700 312.917,210.297 312.995,210.905 313.087 " stroke="none" fill="#848484" fill-rule="evenodd"></path><path id="path4" d="M193.500 78.682 C 193.995 78.778,194.805 78.778,195.300 78.682 C 195.795 78.587,195.390 78.509,194.400 78.509 C 193.410 78.509,193.005 78.587,193.500 78.682 M203.700 78.687 C 204.305 78.778,205.295 78.778,205.900 78.687 C 206.505 78.595,206.010 78.520,204.800 78.520 C 203.590 78.520,203.095 78.595,203.700 78.687 M82.920 191.600 C 82.920 192.810,82.995 193.305,83.087 192.700 C 83.178 192.095,83.178 191.105,83.087 190.500 C 82.995 189.895,82.920 190.390,82.920 191.600 M82.920 199.600 C 82.920 200.810,82.995 201.305,83.087 200.700 C 83.178 200.095,83.178 199.105,83.087 198.500 C 82.995 197.895,82.920 198.390,82.920 199.600 M203.491 258.689 C 204.201 258.777,205.461 258.779,206.291 258.692 C 207.121 258.605,206.540 258.533,205.000 258.531 C 203.460 258.529,202.781 258.600,203.491 258.689 M114.200 280.000 C 115.506 281.320,116.665 282.400,116.775 282.400 C 116.885 282.400,115.906 281.320,114.600 280.000 C 113.294 278.680,112.135 277.600,112.025 277.600 C 111.915 277.600,112.894 278.680,114.200 280.000 " stroke="none" fill="#585858" fill-rule="evenodd"></path></g></svg>