<svg xmlns="http://www.w3.org/2000/svg" viewBox="0 0 79.25 149.86"><defs><style>.cls-1{fill:#fff;}</style></defs><g id="Layer_2" data-name="Layer 2"><g id="VECTOR"><path class="cls-1" d="M79.25,140.94,78.93,0H62.11a1,1,0,0,0-.81.43l-20.86,33a1,1,0,0,1-1.62,0L17.63.43A1,1,0,0,0,16.82,0H0L.24,141v8a.94.94,0,0,0,1.58.61l7.86-7.31h0l5.56-5.18a2.5,2.5,0,0,0,.82-1.84L15.81,29.33a1,1,0,0,1,1.76-.44l14.18,21.9a.78.78,0,0,1,.13.44L31.8,85.08a.85.85,0,0,0,.09.38l6.78,13.15a1,1,0,0,0,1.7,0l6.78-13.15a.86.86,0,0,0,.1-.38l.08-33.78a.84.84,0,0,1,.13-.44l13.9-22a1,1,0,0,1,1.76.44L63.32,134a5.34,5.34,0,0,0,1.74,3.9l8.84,8.22s0,0,0,0l3.72,3.46a.94.94,0,0,0,1.59-.61v-8.05Z"/></g></g></svg>